<svg width="256" height="256" viewBox="0 0 256 256" fill="none" xmlns="http://www.w3.org/2000/svg">
<path fill-rule="evenodd" clip-rule="evenodd" d="M148 33L157.945 104.483C167.26 111.055 174.319 120.612 177.731 131.761L212 144L178.966 157.371C175.442 174.783 163.219 189.039 147.029 195.408L128 223L108.971 195.408C92.7813 189.039 80.5583 174.783 77.0343 157.371L44 144L78.2686 131.761C81.6808 120.612 88.7397 111.055 98.0546 104.483L108 33L122 40.7V137L128 146L134 137V40.7L148 33ZM128 211L140 188L128 164L116 188L128 211Z" fill="white"/>
</svg>
