<svg width="256" height="256" viewBox="0 0 256 256" fill="none" xmlns="http://www.w3.org/2000/svg">
<path d="M130 59.9999C136.5 46 157.5 41.5 164.5 36.9999C164.5 42 180 59.5 176 75.9999L133 116L130 59.9999Z" fill="white"/>
<path d="M126.855 59.9999C120.355 46 99.3548 41.5 92.3548 36.9999C92.3548 42 76.8548 59.5 80.8548 75.9999L123.855 116L126.855 59.9999Z" fill="white"/>
<path d="M130 194.855C136.5 208.855 157.5 213.355 164.5 217.855C164.5 212.855 180 195.355 176 178.855L133 138.855L130 194.855Z" fill="white"/>
<path d="M126.855 194.855C120.355 208.855 99.3548 213.355 92.3548 217.855C92.3548 212.855 76.8548 195.355 80.8548 178.855L123.855 138.855L126.855 194.855Z" fill="white"/>
<path d="M177.598 81.2635C192.094 75.9603 210.125 87.6275 218.257 89.3952C214.721 92.9308 213.307 116.265 198.811 125.104L140.121 122.983L177.598 81.2635Z" fill="white"/>
<path d="M79.2568 81.2635C64.7612 75.9603 46.73 87.6275 38.5982 89.3952C42.1338 92.9308 43.548 116.265 58.0436 125.104L116.733 122.983L79.2568 81.2635Z" fill="white"/>
<path d="M177.598 173.591C192.094 178.894 210.125 167.227 218.257 165.459C214.721 161.924 213.307 138.589 198.811 129.751L140.121 131.872L177.598 173.591Z" fill="white"/>
<path d="M79.2568 173.591C64.7612 178.894 46.73 167.227 38.5982 165.459C42.1338 161.924 43.548 138.589 58.0436 129.751L116.733 131.872L79.2568 173.591Z" fill="white"/>
<path d="M183.5 185.5L184.5 184.5L180.5 180H188C188 180 192.5 189.5 200 200C189 193 179 189 179 189V181.5L183.5 185.5Z" fill="white"/>
<path d="M127.435 208.071H128.849L129.203 202.061L134.506 207.364C134.506 207.364 130.971 217.263 128.849 229.991C126.021 217.263 121.778 207.364 121.778 207.364L127.081 202.061L127.435 208.071Z" fill="white"/>
<path d="M48.9203 127.435L48.9203 128.849L54.9307 129.203L49.6274 134.506C49.6274 134.506 39.7279 130.971 27 128.849C39.7279 126.021 49.6274 121.778 49.6274 121.778L54.9307 127.081L48.9203 127.435Z" fill="white"/>
<path d="M127.435 48.9203H128.849L129.203 54.9307L134.506 49.6274C134.506 49.6274 130.971 39.7279 128.849 27C126.021 39.7279 121.778 49.6274 121.778 49.6274L127.081 54.9307L127.435 48.9203Z" fill="white"/>
<path d="M208.071 127.435L208.071 128.849L202.061 129.203L207.364 134.506C207.364 134.506 217.264 130.971 229.991 128.849C217.264 126.021 207.364 121.778 207.364 121.778L202.061 127.081L208.071 127.435Z" fill="white"/>
<path d="M183.5 71.5L184.5 72.5L180.5 77H188C188 77 192.5 67.5 200 57C189 64 179 68 179 68V75.5L183.5 71.5Z" fill="white"/>
<path d="M73.5001 185.5L72.5001 184.5L76.5001 180H69.0001C69.0001 180 64.5001 189.5 57.0001 200C68.0001 193 78.0001 189 78.0001 189V181.5L73.5001 185.5Z" fill="white"/>
<path d="M73.5001 71.5L72.5001 72.5L76.5001 77H69.0001C69.0001 77 64.5001 67.5 57.0001 57C68.0001 64 78.0001 68 78.0001 68V75.5L73.5001 71.5Z" fill="white"/>
</svg>
